# xmcd
#
# Track frame offsets:
#	150
#	19050
#	34079
#	51909
#	68855
#	87329
#	103995
#	123020
#	141906
#	163689
#	184824
#	203207
#	216290
#	233512
#	252166
#	268339
#	289695
#	306174
#	322204
#	338668
#
# Disc length: 4745
#
# Revision: 2
# Processed by: cddbd v1.5.2PL0 Copyright (c) Steve Scherf et al.
# Submitted via: kJams Pro (development) 1.0patch51.35
#
DISCID=30128714
DTITLE=Misc - 100 Hits R&B Disk4
DYEAR=2000
DGENRE=R&B
TTITLE0=Pixie Lott - Cry Me Out
TTITLE1=Kellis - Lil' Star
TTITLE2=Rihanna - Take a Bow
TTITLE3=Justin Timberlake - Cry Me a River
TTITLE4=Usher - Burn
TTITLE5=Ne–Yo - So Sick
TTITLE6=Outkast - Prototype
TTITLE7=Daniel Meriwether - Red
TTITLE8=Beyonce - Me, Myself and I
TTITLE9=Alicia Keys - A woman's worth
TTITLE10=Bobby Valentino - Slow Down
TTITLE11=Kanye West and Adam Levine - Heard 'em Say
TTITLE12=Jamelia - See it In A Boy's Eyes
TTITLE13=Leona Lewis - Better in Time
TTITLE14=Kelly Rowland - Train on a Track
TTITLE15=Sean Paul and Sasha - I'm Still in Love With You
TTITLE16=Simon Webbe - No Worries
TTITLE17=Blue - One Love
TTITLE18=Jennifer Lopez - Ain't It Funny
TTITLE19=Boyz II Men - End of the Road
EXTD=
EXTT0=
EXTT1=
EXTT2=
EXTT3=
EXTT4=
EXTT5=
EXTT6=
EXTT7=
EXTT8=
EXTT9=
EXTT10=
EXTT11=
EXTT12=
EXTT13=
EXTT14=
EXTT15=
EXTT16=
EXTT17=
EXTT18=
EXTT19=
PLAYORDER=
